<svg width="1013" height="311" viewBox="0 0 1013 311" fill="none" xmlns="http://www.w3.org/2000/svg">
<g clip-path="url(#clip0_918_199)">
<path d="M0 12.4855C21.8011 12.4855 43.6022 12.4855 66.0639 12.4855C66.0639 54.3794 66.0639 96.2732 66.0639 139.437C69.6974 135.478 73.3309 131.52 77.0746 127.441C79.4061 124.938 81.7399 122.438 84.0813 119.944C88.2757 115.467 92.4515 110.975 96.5934 106.449C101.309 101.297 106.072 96.1903 110.846 91.092C114.618 87.0615 118.375 83.0179 122.118 78.9599C127.029 73.6355 131.972 68.3406 136.922 63.052C140.676 59.0379 144.417 55.0108 148.143 50.9707C152.462 46.2884 156.803 41.6271 161.156 36.976C163.492 34.4777 165.828 31.9786 168.163 29.4789C168.737 28.8638 169.312 28.2487 169.904 27.6149C171.557 25.8434 173.207 24.0692 174.857 22.2942C175.35 21.7659 175.844 21.2376 176.352 20.6932C179.125 17.7224 179.125 17.7224 181.352 14.3439C183.177 12.4855 183.177 12.4855 186.54 12.0046C187.953 11.993 189.365 12.0037 190.777 12.0315C191.549 12.0309 192.32 12.0304 193.116 12.0298C195.667 12.0326 198.217 12.0637 200.768 12.095C202.537 12.1024 204.306 12.1081 206.074 12.1121C210.73 12.1274 215.385 12.1667 220.04 12.2109C224.79 12.2518 229.541 12.2701 234.291 12.2902C243.612 12.3331 252.933 12.4014 262.254 12.4855C260.725 15.6946 259.139 17.8208 256.58 20.3106C255.851 21.0283 255.121 21.746 254.369 22.4855C253.606 23.2264 252.843 23.9674 252.056 24.7308C247.16 29.5059 242.439 34.3165 237.979 39.5014C234.259 43.6944 230.183 47.5496 226.18 51.4705C222.909 54.699 219.741 57.9531 216.741 61.4354C212.28 66.6078 207.386 71.3253 202.512 76.1055C198.474 80.0949 194.649 84.1744 190.944 88.4738C187.217 92.667 183.141 96.5273 179.134 100.452C175.865 103.678 172.7 106.93 169.703 110.413C165.201 115.634 160.237 120.377 155.291 125.175C151.048 129.347 147.438 133.483 144.139 138.437C144.916 139.443 145.693 140.45 146.493 141.487C154.257 151.571 161.867 161.758 169.398 172.017C172.316 175.989 175.245 179.954 178.172 183.92C179.34 185.502 180.508 187.085 181.676 188.668C182.254 189.451 182.832 190.235 183.427 191.042C188.683 198.164 188.683 198.164 190.435 200.539C191.601 202.119 192.767 203.7 193.933 205.28C196.88 209.272 199.825 213.266 202.766 217.262C208.218 224.664 213.681 232.055 219.212 239.398C225.348 247.545 231.401 255.752 237.447 263.965C239.794 267.152 242.144 270.337 244.494 273.521C245.65 275.087 246.806 276.655 247.961 278.222C251.03 282.388 254.111 286.545 257.206 290.691C257.852 291.559 258.497 292.427 259.163 293.321C260.406 294.991 261.651 296.658 262.901 298.323C263.458 299.072 264.014 299.821 264.588 300.593C265.327 301.582 265.327 301.582 266.081 302.591C267.259 304.373 267.259 304.373 268.259 307.372C258.253 307.674 248.248 307.905 238.239 308.045C233.59 308.113 228.944 308.205 224.297 308.352C219.805 308.494 215.317 308.571 210.823 308.605C209.115 308.629 207.408 308.676 205.702 308.746C192.74 309.26 192.74 309.26 188.518 306.141C185.037 302.647 182.655 298.609 180.174 294.377C178.631 292.137 177.028 289.95 175.42 287.755C174.586 286.581 173.753 285.407 172.921 284.233C169.783 279.827 166.564 275.483 163.346 271.136C155.995 261.203 148.756 251.193 141.532 241.168C134.866 231.921 128.154 222.71 121.372 213.547C116.629 207.13 111.942 200.674 107.278 194.201C106.772 193.5 106.267 192.799 105.747 192.077C105.283 191.431 104.819 190.786 104.342 190.121C103.334 188.739 102.29 187.385 101.235 186.04C99.5963 184.434 100.097 184.934 99.5963 184.434C94.3982 188.705 90.8443 192.077 85.9692 196.34C83.5808 198.428 81.3717 200.428 79.1497 202.702C73.0707 208.924 66.4304 213.671 65.3085 222.913C65.0659 227.568 65.157 232.176 65.3171 236.833C65.3271 238.847 65.3298 240.861 65.3256 242.875C65.3333 248.125 65.4354 253.368 65.5595 258.615C65.6707 263.987 65.6957 269.358 65.7257 274.73C65.7623 280.754 65.8076 286.777 65.9191 292.8C65.935 293.708 65.9509 294.616 65.9673 295.551C65.9986 297.252 66.0339 298.953 66.0741 300.653C66.1083 302.559 66.0917 304.466 66.0639 306.372C65.7336 306.702 65.4033 307.032 65.0629 307.372C43.5922 307.372 22.1214 307.372 0 307.372C0 210.06 0 112.747 0 12.4855Z" fill="#7B5FCD"/>
<path d="M390.973 80.9589C391.711 81.1728 392.449 81.3868 393.209 81.6073C423.431 90.7044 448.765 111.209 463.925 138.875C478.069 166.193 481.099 198.69 472.222 228.165C465.637 248.442 454.38 265.015 438.941 279.67C438.333 280.26 437.725 280.851 437.099 281.46C430.955 287.209 424.266 291.512 416.956 295.646C415.886 296.255 414.817 296.864 413.716 297.491C406.942 301.114 400.184 303.719 392.846 305.944C392.048 306.186 391.25 306.428 390.428 306.678C378.687 310.055 367.17 311.035 354.996 310.999C354.271 310.998 353.546 310.997 352.799 310.996C322.806 310.877 294.708 301.708 272.051 281.667C271.347 281.095 270.644 280.524 269.919 279.935C249.023 262.74 235.836 234.405 233.076 207.774C231.421 174.95 237.821 144.089 260.059 118.904C260.806 118.014 261.553 117.125 262.323 116.208C293.057 80.6941 346.429 67.9941 390.973 80.9589ZM330.013 136.877C329.065 137.289 328.116 137.701 327.14 138.126C313.473 144.802 305.209 156.505 299.65 170.251C294.095 187.718 295.535 207.21 303.03 223.751C310.303 237.568 321.672 247.486 336.407 252.931C353.353 257.991 370.199 256.093 385.75 247.728C400.237 238.703 408.216 225.435 412.271 209.085C415.459 190.006 411.92 171.338 401.189 155.171C394.785 146.561 385.984 139.842 375.982 135.879C374.912 135.433 374.912 135.433 373.82 134.978C360.403 130.36 342.883 131.162 330.013 136.877Z" fill="#7B5FCD"/>
<path d="M984.941 92.1753C1002.51 107.544 1010 128.889 1011.82 151.755C1012.5 163.527 1012.27 175.369 1012.24 187.157C1012.23 191.338 1012.23 195.519 1012.23 199.7C1012.23 206.698 1012.22 213.696 1012.21 220.694C1012.19 228.789 1012.18 236.883 1012.19 244.978C1012.19 253.619 1012.18 262.26 1012.17 270.902C1012.17 273.389 1012.17 275.876 1012.17 278.363C1012.17 282.253 1012.16 286.143 1012.15 290.034C1012.15 291.464 1012.15 292.894 1012.15 294.324C1012.15 296.267 1012.14 298.21 1012.13 300.154C1012.13 301.243 1012.13 302.332 1012.13 303.455C1012 305.886 1012 305.886 1011 306.886C1009.01 306.98 1007.02 307.004 1005.03 307C1003.75 307 1002.47 306.999 1001.16 306.999C999.75 306.994 998.345 306.989 996.939 306.984C995.509 306.982 994.079 306.98 992.649 306.979C988.879 306.976 985.109 306.966 981.338 306.955C977.494 306.945 973.649 306.94 969.804 306.935C962.255 306.924 954.707 306.907 947.158 306.886C947.155 306.203 947.153 305.52 947.151 304.817C947.091 288.144 947.016 271.472 946.923 254.8C946.878 246.738 946.839 238.675 946.812 230.612C946.789 223.579 946.756 216.546 946.71 209.512C946.687 205.793 946.668 202.075 946.661 198.356C946.654 194.189 946.624 190.022 946.592 185.855C946.593 184.643 946.594 183.431 946.596 182.182C946.453 168.972 944.709 154.614 935.113 144.74C925.92 137.036 915.125 135.215 903.338 136.082C895.007 137.323 886.274 140.734 880.32 146.869C872.427 157.704 870.895 168.61 870.926 181.773C870.919 183.133 870.91 184.493 870.9 185.853C870.877 189.509 870.872 193.166 870.87 196.823C870.864 200.658 870.841 204.494 870.819 208.33C870.781 215.578 870.757 222.827 870.738 230.076C870.705 243.087 870.647 256.098 870.585 269.109C870.563 273.674 870.548 278.24 870.538 282.805C870.531 285.633 870.52 288.461 870.508 291.289C870.502 293.234 870.5 295.18 870.498 297.125C870.493 298.272 870.487 299.419 870.482 300.6C870.479 301.603 870.477 302.605 870.474 303.638C870.344 305.886 870.344 305.886 869.347 306.886C848.278 306.886 827.209 306.886 805.501 306.886C805.501 232.298 805.501 157.71 805.501 80.8616C826.9 80.8616 848.298 80.8616 870.344 80.8616C870.344 90.7627 870.344 100.664 870.344 110.865C874.788 105.419 874.788 105.419 879.322 99.8637C907.229 71.8523 953.268 67.4879 984.941 92.1753Z" fill="#7B5FCD"/>
<path d="M496.632 23C498.332 23.0033 498.332 23.0033 500.068 23.0067C501.348 23.0068 502.628 23.0069 503.947 23.007C505.355 23.0121 506.763 23.0173 508.171 23.0226C509.603 23.0245 511.035 23.0259 512.468 23.0269C516.244 23.0307 520.021 23.0405 523.798 23.0516C528.326 23.0636 532.853 23.0682 537.381 23.074C544.266 23.0837 551.151 23.1029 558.035 23.1202C558.035 42.2578 558.035 61.3954 558.035 81.1128C575.512 81.1128 592.989 81.1128 610.995 81.1128C610.995 99.2605 610.995 117.408 610.995 136.106C593.518 136.106 576.042 136.106 558.035 136.106C558.126 153.835 558.126 153.835 558.244 171.564C558.298 178.799 558.349 186.033 558.381 193.268C558.407 199.103 558.448 204.937 558.498 210.772C558.515 212.994 558.526 215.217 558.532 217.439C558.542 220.56 558.57 223.68 558.602 226.801C558.601 227.713 558.6 228.625 558.598 229.565C558.689 235.811 559.209 242.762 563.412 247.719C569.825 253.377 577.727 252.639 585.829 252.283C594.313 251.536 602.234 248.421 609.996 245.092C609.996 262.58 609.996 280.068 609.996 298.085C593.09 305.98 593.09 305.98 587.013 307.459C585.839 307.755 584.664 308.052 583.454 308.357C567.069 311.823 547.109 312.348 531.056 307.084C530.178 306.817 529.301 306.55 528.398 306.276C515.667 301.846 506.67 293.039 500.583 281.173C495.566 269.883 493.623 258.615 493.743 246.325C493.743 245.124 493.742 243.922 493.742 242.684C493.744 239.435 493.759 236.187 493.78 232.938C493.799 229.526 493.8 226.114 493.804 222.702C493.813 216.261 493.838 209.82 493.868 203.379C493.901 196.038 493.918 188.696 493.933 181.355C493.964 166.272 494.019 151.189 494.084 136.106C485.18 136.106 476.277 136.106 467.104 136.106C467.104 117.958 467.104 99.8105 467.104 81.1128C476.007 81.1128 484.911 81.1128 494.084 81.1128C494 77.0103 493.916 72.9077 493.83 68.6808C493.766 65.418 493.703 62.1551 493.641 58.8922C493.576 55.4433 493.508 51.9943 493.436 48.5455C493.353 44.5921 493.279 40.6385 493.205 36.6849C493.178 35.4434 493.151 34.2019 493.124 32.9228C493.103 31.7819 493.083 30.6409 493.063 29.4654C493.043 28.4551 493.023 27.4449 493.002 26.404C493.119 23.1534 493.372 23.1538 496.632 23Z" fill="#7B5FCD"/>
<path d="M628.478 0C649.911 0 671.343 0 693.426 0C693.426 101.31 693.426 202.62 693.426 307C672.323 307 651.22 307 629.477 307C628.478 306 628.478 306 628.354 303.914C628.354 302.985 628.355 302.055 628.355 301.098C628.353 300.03 628.351 298.962 628.349 297.862C628.352 296.674 628.355 295.486 628.358 294.263C628.357 293.012 628.356 291.762 628.355 290.474C628.353 286.987 628.357 283.5 628.362 280.014C628.366 276.26 628.365 272.506 628.364 268.752C628.364 262.243 628.367 255.734 628.372 249.224C628.381 239.813 628.383 230.402 628.384 220.99C628.387 205.723 628.393 190.455 628.403 175.187C628.412 160.352 628.419 145.517 628.423 130.682C628.423 129.769 628.424 128.855 628.424 127.913C628.425 123.33 628.427 118.746 628.428 114.162C628.438 76.1079 628.457 38.0539 628.478 0Z" fill="#7B5FCD"/>
<path d="M717.287 81C738.72 81 760.152 81 782.235 81C782.257 109.647 782.275 138.293 782.286 166.94C782.287 170.318 782.288 173.697 782.289 177.075C782.29 177.748 782.29 178.421 782.29 179.114C782.295 190.019 782.302 200.924 782.312 211.829C782.321 223.011 782.326 234.192 782.329 245.373C782.33 251.657 782.333 257.941 782.34 264.225C782.347 270.132 782.349 276.039 782.348 281.947C782.348 284.121 782.35 286.296 782.354 288.471C782.359 291.427 782.357 294.382 782.355 297.338C782.358 298.21 782.361 299.083 782.364 299.982C782.349 305.886 782.349 305.886 781.235 307C760.132 307 739.03 307 717.287 307C717.287 232.42 717.287 157.84 717.287 81Z" fill="#7B5FCD"/>
<path d="M715.118 0C737.547 0 759.977 0 783.086 0C783.086 18.81 783.086 37.62 783.086 57C760.657 57 738.227 57 715.118 57C715.118 38.19 715.118 19.38 715.118 0Z" fill="#7B5FCD"/>
<path d="M697.041 310C699.933 311 699.933 311 699.933 311L697.041 310Z" fill="#221E1E"/>
<path d="M700.656 309C703.549 310 703.549 310 703.549 310L700.656 309Z" fill="#252222"/>
<path d="M558.211 309C561.103 310 561.103 310 561.103 310L558.211 309Z" fill="#242020"/>
<path d="M512.658 309C515.55 310 515.55 310 515.55 310L512.658 309Z" fill="#252122"/>
<path d="M509.765 308C512.657 309 512.657 309 512.657 309L509.765 308Z" fill="#231F1F"/>
<path d="M637.749 266C638.472 270 638.472 270 638.472 270L637.749 266Z" fill="#241F21"/>
<path d="M545.919 252C548.811 253 548.811 253 548.811 253L545.919 252Z" fill="#241E21"/>
<path d="M526.396 252C529.288 253 529.288 253 529.288 253L526.396 252Z" fill="#241F21"/>
<path d="M704.995 250C707.887 251 707.887 251 707.887 251L704.995 250Z" fill="#262122"/>
<path d="M475.781 214C477.227 218 477.227 218 477.227 218L475.781 214Z" fill="#242020"/>
<path d="M475.781 169C477.227 173 477.227 173 477.227 173L475.781 169Z" fill="#242122"/>
<path d="M872.024 165C873.47 169 873.47 169 873.47 169L872.024 165Z" fill="#252021"/>
<path d="M962.408 162C963.131 166 963.131 166 963.131 166L962.408 162Z" fill="#231F1F"/>
<path d="M1010.85 132C1011.58 136 1011.58 136 1011.58 136L1010.85 132Z" fill="#252021"/>
<path d="M365.151 135C368.766 136 368.766 136 368.766 136L365.151 135Z" fill="#241F21"/>
<path d="M383.951 78C388.29 79 388.29 79 388.29 79L383.951 78Z" fill="#231F20"/>
<path d="M971.085 77C973.977 78 973.977 78 973.977 78L971.085 77Z" fill="#262123"/>
<path d="M326.828 77C331.167 78 331.167 78 331.167 78L326.828 77Z" fill="#241F20"/>
<path d="M967.47 76C970.362 77 970.362 77 970.362 77L967.47 76Z" fill="#231E20"/>
<path d="M943.608 76C946.501 77 946.501 77 946.501 77L943.608 76Z" fill="#232021"/>
<path d="M555.319 310C557.488 311 557.488 311 557.488 311L555.319 310Z" fill="#221E1F"/>
<path d="M516.273 310C518.442 311 518.442 311 518.442 311L516.273 310Z" fill="#211E1F"/>
<path d="M704.271 308C706.441 309 706.441 309 706.441 309L704.271 308Z" fill="#252022"/>
<path d="M663.779 308C665.949 309 665.949 309 665.949 309L663.779 308Z" fill="#231F20"/>
<path d="M561.104 308C563.273 309 563.273 309 563.273 309L561.104 308Z" fill="#231F20"/>
<path d="M507.596 307C509.765 308 509.765 308 509.765 308L507.596 307Z" fill="#221F21"/>
<path d="M505.427 306C507.596 307 507.596 307 507.596 307L505.427 306Z" fill="#241F20"/>
<path d="M691.979 250C694.149 251 694.149 251 694.149 251L691.979 250Z" fill="#251F22"/>
<path d="M709.333 249C711.502 250 711.502 250 711.502 250L709.333 249Z" fill="#231F21"/>
<path d="M947.224 139C949.393 140 949.393 140 949.393 140L947.224 139Z" fill="#252022"/>
<path d="M945.055 138C947.224 139 947.224 139 947.224 139L945.055 138Z" fill="#24201F"/>
<path d="M928.424 138C930.593 139 930.593 139 930.593 139L928.424 138Z" fill="#231E20"/>
<path d="M339.844 135C342.736 136 342.736 136 342.736 136L339.844 135Z" fill="#242022"/>
<path d="M391.905 80C394.797 81 394.797 81 394.797 81L391.905 80Z" fill="#241E1F"/>
<path d="M389.012 79C391.904 80 391.904 80 391.904 80L389.012 79Z" fill="#252122"/>
<path d="M318.875 79C321.767 80 321.767 80 321.767 80L318.875 79Z" fill="#231F1E"/>
<path d="M973.977 78C976.146 79 976.146 79 976.146 79L973.977 78Z" fill="#221E1F"/>
<path d="M323.213 78C326.105 79 326.105 79 326.105 79L323.213 78Z" fill="#241F1F"/>
<path d="M940.716 77C942.885 78 942.885 78 942.885 78L940.716 77Z" fill="#231E20"/>
<path d="M707.164 307C708.61 308 708.61 308 708.61 308L707.164 307Z" fill="#221E20"/>
<path d="M662.333 307C663.78 308 663.78 308 663.78 308L662.333 307Z" fill="#231E1F"/>
<path d="M563.996 307C565.442 308 565.442 308 565.442 308L563.996 307Z" fill="#252021"/>
<path d="M709.333 306C710.779 307 710.779 307 710.779 307L709.333 306Z" fill="#251F20"/>
<path d="M660.164 306C661.61 307 661.61 307 661.61 307L660.164 306Z" fill="#252021"/>
<path d="M566.165 306C567.611 307 567.611 307 567.611 307L566.165 306Z" fill="#221F20"/>
<path d="M658.718 305C660.164 306 660.164 306 660.164 306L658.718 305Z" fill="#252020"/>
<path d="M568.334 305C569.78 306 569.78 306 569.78 306L568.334 305Z" fill="#241F22"/>
<path d="M503.981 305C505.427 306 505.427 306 505.427 306L503.981 305Z" fill="#241E1F"/>
<path d="M712.948 304C714.394 305 714.394 305 714.394 305L712.948 304Z" fill="#221F1F"/>
<path d="M570.503 304C571.95 305 571.95 305 571.95 305L570.503 304Z" fill="#261F23"/>
<path d="M501.812 304C503.258 305 503.258 305 503.258 305L501.812 304Z" fill="#241E20"/>
<path d="M714.395 303C715.841 304 715.841 304 715.841 304L714.395 303Z" fill="#242020"/>
<path d="M655.826 303C657.272 304 657.272 304 657.272 304L655.826 303Z" fill="#242021"/>
<path d="M571.949 303C573.395 304 573.395 304 573.395 304L571.949 303Z" fill="#262223"/>
<path d="M499.643 303C501.089 304 501.089 304 501.089 304L499.643 303Z" fill="#221F20"/>
<path d="M574.119 302C575.565 303 575.565 303 575.565 303L574.119 302Z" fill="#221F1E"/>
<path d="M498.196 302C499.642 303 499.642 303 499.642 303L498.196 302Z" fill="#231E1F"/>
<path d="M575.565 301C577.011 302 577.011 302 577.011 302L575.565 301Z" fill="#242020"/>
<path d="M496.75 301C498.196 302 498.196 302 498.196 302L496.75 301Z" fill="#211E20"/>
<path d="M577.011 300C578.457 301 578.457 301 578.457 301L577.011 300Z" fill="#241E1F"/>
<path d="M720.179 299C721.625 300 721.625 300 721.625 300L720.179 299Z" fill="#231F1E"/>
<path d="M578.457 299C579.903 300 579.903 300 579.903 300L578.457 299Z" fill="#242020"/>
<path d="M579.903 298C581.349 299 581.349 299 581.349 299L579.903 298Z" fill="#221F21"/>
<path d="M490.965 297C492.411 298 492.411 298 492.411 298L490.965 297Z" fill="#221F1F"/>
<path d="M589.303 290C590.749 291 590.749 291 590.749 291L589.303 290Z" fill="#221E1F"/>
<path d="M549.534 251C550.98 252 550.98 252 550.98 252L549.534 251Z" fill="#241F20"/>
<path d="M524.227 251C525.673 252 525.673 252 525.673 252L524.227 251Z" fill="#251E20"/>
<path d="M551.704 250C553.15 251 553.15 251 553.15 251L551.704 250Z" fill="#232021"/>
<path d="M522.058 250C523.504 251 523.504 251 523.504 251L522.058 250Z" fill="#251F20"/>
<path d="M712.226 248C713.672 249 713.672 249 713.672 249L712.226 248Z" fill="#231F21"/>
<path d="M555.319 248C556.765 249 556.765 249 556.765 249L555.319 248Z" fill="#221F1E"/>
<path d="M714.395 247C715.841 248 715.841 248 715.841 248L714.395 247Z" fill="#242021"/>
<path d="M556.765 247C558.211 248 558.211 248 558.211 248L556.765 247Z" fill="#231E1F"/>
<path d="M715.841 246C717.287 247 717.287 247 717.287 247L715.841 246Z" fill="#221E20"/>
<path d="M98.3379 184C99.784 185 99.784 185 99.784 185L98.3379 184Z" fill="#221E1E"/>
<path d="M381.782 141C383.951 142 383.951 142 383.951 142L381.782 141Z" fill="#242020"/>
<path d="M949.393 140C950.839 141 950.839 141 950.839 141L949.393 140Z" fill="#221E1F"/>
<path d="M380.335 140C381.782 141 381.782 141 381.782 141L380.335 140Z" fill="#221F20"/>
<path d="M326.105 140C328.275 141 328.275 141 328.275 141L326.105 140Z" fill="#231F20"/>
<path d="M926.254 139C927.701 140 927.701 140 927.701 140L926.254 139Z" fill="#231D20"/>
<path d="M378.167 139C380.336 140 380.336 140 380.336 140L378.167 139Z" fill="#242021"/>
<path d="M328.274 139C329.721 140 329.721 140 329.721 140L328.274 139Z" fill="#232021"/>
<path d="M558.934 138C561.103 139 561.103 139 561.103 139L558.934 138Z" fill="#241E20"/>
<path d="M375.997 138C378.166 139 378.166 139 378.166 139L375.997 138Z" fill="#201F1F"/>
<path d="M373.105 137C375.274 138 375.274 138 375.274 138L373.105 137Z" fill="#231F20"/>
<path d="M333.336 137C334.782 138 334.782 138 334.782 138L333.336 137Z" fill="#242021"/>
<path d="M370.212 136C372.382 137 372.382 137 372.382 137L370.212 136Z" fill="#221E20"/>
<path d="M336.228 136C338.397 137 338.397 137 338.397 137L336.228 136Z" fill="#222020"/>
<path d="M422.997 94C425.166 95 425.166 95 425.166 95L422.997 94Z" fill="#231F21"/>
<path d="M287.06 93C289.229 94 289.229 94 289.229 94L287.06 93Z" fill="#231E20"/>
<path d="M292.121 90C294.29 91 294.29 91 294.29 91L292.121 90Z" fill="#242021"/>
<path d="M294.29 89C295.736 90 295.736 90 295.736 90L294.29 89Z" fill="#242021"/>
<path d="M295.736 88C297.906 89 297.906 89 297.906 89L295.736 88Z" fill="#232020"/>
<path d="M988.438 87C989.885 88 989.885 88 989.885 88L988.438 87Z" fill="#242121"/>
<path d="M297.905 87C300.074 88 300.074 88 300.074 88L297.905 87Z" fill="#231E1F"/>
<path d="M300.075 86C302.244 87 302.244 87 302.244 87L300.075 86Z" fill="#241D1F"/>
<path d="M406.366 85C407.812 86 407.812 86 407.812 86L406.366 85Z" fill="#231D1E"/>
<path d="M404.197 84C406.366 85 406.366 85 406.366 85L404.197 84Z" fill="#231E1F"/>
<path d="M305.136 84C307.305 85 307.305 85 307.305 85L305.136 84Z" fill="#211E1E"/>
<path d="M401.305 83C402.751 84 402.751 84 402.751 84L401.305 83Z" fill="#221E1F"/>
<path d="M307.305 83C308.751 84 308.751 84 308.751 84L307.305 83Z" fill="#231E20"/>
<path d="M931.316 82C932.762 83 932.762 83 932.762 83L931.316 82Z" fill="#231D1F"/>
<path d="M399.135 82C401.304 83 401.304 83 401.304 83L399.135 82Z" fill="#242021"/>
<path d="M310.198 82C312.367 83 312.367 83 312.367 83L310.198 82Z" fill="#231F20"/>
<path d="M980.485 81C981.931 82 981.931 82 981.931 82L980.485 81Z" fill="#241E21"/>
<path d="M396.243 81C398.412 82 398.412 82 398.412 82L396.243 81Z" fill="#231F20"/>
<path d="M313.09 81C315.259 82 315.259 82 315.259 82L313.09 81Z" fill="#241F21"/>
<path d="M315.982 80C318.152 81 318.152 81 318.152 81L315.982 80Z" fill="#231E20"/>
<path d="M976.87 79C978.316 80 978.316 80 978.316 80L976.87 79Z" fill="#242022"/>
<path d="M936.377 79C937.824 80 937.824 80 937.824 80L936.377 79Z" fill="#241F22"/>
<path d="M938.547 78C939.993 79 939.993 79 939.993 79L938.547 78Z" fill="#231E20"/>
</g>
<defs>
<clipPath id="clip0_918_199">
<rect width="1012.3" height="311" fill="white"/>
</clipPath>
</defs>
</svg>
