<svg width="400" height="360" viewBox="0 0 400 360" fill="none" xmlns="http://www.w3.org/2000/svg">
<path d="M133.646 5.52207C136.238 7.57304 138.684 9.70894 141.111 11.9386C143.252 13.8851 145.437 15.6496 147.759 17.3926C153.624 21.8153 159.238 26.515 164.885 31.188C171.387 36.5621 177.909 41.8928 184.581 47.0721C188.434 50.1354 192.192 53.3028 195.935 56.4878C201.156 61.0695 201.156 61.0695 207.722 63.1467C210.754 62.8033 212.388 62.075 214.981 60.5434C215.909 59.9975 216.838 59.4516 217.794 58.8891C218.904 58.2133 220.011 57.5346 221.117 56.8539C221.774 56.4501 222.431 56.0464 223.108 55.6304C227.671 52.8174 232.212 49.9744 236.749 47.1239C240.009 45.0792 243.282 43.0524 246.555 41.0266C250.528 38.5663 254.497 36.1011 258.458 33.6242C266.032 28.8896 273.62 24.1773 281.254 19.5314C281.948 19.1063 282.643 18.6812 283.359 18.2433C291.595 13.2507 298.922 9.97395 308.825 11.9051C318.025 14.5258 325.057 19.9636 329.842 27.8728C334.154 37.8776 331.662 50.819 330.803 61.3781C330.488 65.2653 330.189 69.1537 329.891 73.0422C329.828 73.8622 329.765 74.6822 329.7 75.527C328.914 85.873 328.263 96.2271 327.611 106.582C327.552 107.522 327.492 108.462 327.431 109.431C327.098 114.719 326.768 120.008 326.44 125.296C326.973 125.176 327.506 125.056 328.055 124.932C328.765 124.776 329.474 124.62 330.205 124.459C330.904 124.303 331.602 124.148 332.322 123.988C335.754 123.346 339.13 123.257 342.617 123.264C343.35 123.266 344.082 123.267 344.836 123.269C351.905 123.403 358.116 124.812 364.82 127.007C365.633 127.254 366.447 127.501 367.285 127.756C381.163 132.434 390.429 142.573 396.729 154.866C402.522 170.135 400.155 186.2 393.281 200.731C388.106 210.945 379.493 220.168 370.175 227.105C365.383 228.636 361.073 228.717 356.508 226.57C352.297 223.003 350.323 220.219 349.925 214.806C350.161 209.213 352.773 206.905 356.787 203.15C361.97 197.546 366.219 192.095 369.283 185.184C369.607 184.532 369.932 183.88 370.266 183.208C372.459 176.912 372.135 168.477 369.338 162.405C366.67 158.118 363.172 155.737 358.572 153.529C357.68 153.094 357.68 153.094 356.769 152.65C346.505 148.568 334.962 151.041 324.654 153.529C324.599 154.369 324.599 154.369 324.543 155.225C324.155 161.084 323.746 166.941 323.325 172.797C323.171 174.979 323.022 177.161 322.879 179.344C322.671 182.492 322.444 185.639 322.214 188.786C322.154 189.752 322.094 190.719 322.033 191.715C321.391 200.047 319.415 207.454 313.051 213.416C299.435 223.117 281.209 219.202 265.299 218.121C262.54 217.937 259.781 217.753 257.021 217.572C255.32 217.46 253.619 217.346 251.919 217.229C247.291 216.923 242.715 216.784 238.076 216.838C237.776 217.375 237.476 217.912 237.166 218.465C235.743 221.008 234.316 223.548 232.888 226.089C232.369 227.014 231.85 227.939 231.315 228.892C228.78 233.384 226.212 237.845 223.484 242.233C223.028 242.969 222.572 243.704 222.101 244.461C221.237 245.842 220.363 247.217 219.479 248.586C219.092 249.204 218.705 249.821 218.307 250.458C217.965 250.99 217.623 251.523 217.27 252.071C216.458 254.121 216.687 255.03 217.547 257.048C218.769 258.613 218.769 258.613 220.35 260.076C220.931 260.639 221.513 261.201 222.112 261.781C222.741 262.372 223.37 262.963 224.018 263.571C224.666 264.184 225.315 264.796 225.983 265.427C245.087 283.207 270.342 297.221 296.636 301.948C302.389 303.04 307.509 304.779 311.712 308.808C315.207 316.623 312.569 325.556 310.529 333.48C310.092 335.179 309.674 336.882 309.259 338.586C305.623 353.124 305.623 353.124 299.663 358.001C295.846 360.16 292.395 360.276 288.059 359.712C283.344 357.626 280.104 354.084 278.241 349.445C277.733 344.204 279.078 339.544 280.473 334.527C280.792 333.343 280.792 333.343 281.118 332.136C281.64 330.204 282.169 328.274 282.704 326.346C280.971 326.014 280.971 326.014 279.203 325.674C274.76 324.723 270.63 323.329 266.415 321.694C265.65 321.398 264.886 321.101 264.099 320.796C242.201 312.089 223.25 299.96 206.155 284.262C203.781 281.795 203.781 281.795 200.588 281.003C200.109 281.837 199.631 282.67 199.138 283.529C194.037 292.385 188.828 301.179 183.58 309.955C179.944 316.037 176.334 322.13 172.807 328.271C169.221 334.488 165.567 340.667 161.873 346.825C161.341 347.724 160.81 348.622 160.262 349.548C159.756 350.387 159.25 351.225 158.728 352.089C158.056 353.212 158.056 353.212 157.371 354.358C155.898 356.374 154.567 357.567 152.39 358.856C151.801 358.856 151.211 358.856 150.604 358.856C150.118 357.916 149.631 356.975 149.13 356.006C144.995 348.172 140.776 341.389 134.538 334.901C134.003 334.31 133.468 333.719 132.917 333.11C125.717 325.597 115.857 319.735 105.976 316.08C106.936 313.32 107.88 312.306 110.432 310.776C114.2 309.336 118.084 309.549 122.042 310.091C126.704 312.188 130.353 315.98 134.123 319.315C137.85 323.035 137.85 323.035 142.571 324.635C142.854 324.137 143.136 323.638 143.427 323.124C150.428 310.775 157.516 298.485 164.798 286.287C165.267 285.501 165.267 285.501 165.745 284.7C167.314 282.072 168.884 279.444 170.456 276.818C171.624 274.867 172.785 272.912 173.941 270.955C175.028 269.126 176.132 267.305 177.255 265.495C177.753 264.672 178.252 263.848 178.766 263C179.21 262.282 179.655 261.564 180.112 260.824C181.141 258.292 180.904 257.045 180.059 254.481C179.058 252.651 177.989 250.853 176.879 249.081C170.028 237.869 164.641 226.626 160.423 214.272C160.128 213.425 159.834 212.578 159.53 211.705C158.383 211.636 158.383 211.636 157.212 211.566C149.976 211.128 142.741 210.676 135.507 210.209C131.789 209.969 128.07 209.735 124.351 209.513C120.756 209.298 117.162 209.069 113.569 208.831C112.203 208.743 110.837 208.659 109.471 208.581C99.3915 208.002 91.0879 206.704 83.5401 199.861C77.5049 193.167 75.8902 186.697 76.2741 177.982C76.9256 169.916 76.9256 169.916 77.4142 166.362C76.4742 166.402 75.5342 166.441 74.5657 166.482C54.074 167.088 37.3291 159.581 22.0334 146.878C8.74598 134.875 0.903734 117.04 0.156896 99.7148C0.136761 98.9635 0.116626 98.2122 0.0958809 97.4381C0.0642402 96.7254 0.0325995 96.0127 0 95.2784C0.0119834 90.5404 1.13854 88.0324 4.50858 84.5686C8.03496 81.7643 11.078 81.2842 15.5484 81.3969C20.0206 81.9762 22.8455 84.088 25.9802 87.1718C27.4372 90.2334 27.6551 91.9446 27.8211 95.2458C28.4991 107.897 33.6595 120.284 43.4306 129.039C52.3292 135.721 60.7088 139.165 71.881 139.042C72.5854 139.038 73.2897 139.033 74.0154 139.029C75.7434 139.019 77.4714 139.002 79.1994 138.985C79.2362 138.395 79.273 137.806 79.3109 137.198C81.0279 109.706 82.7651 82.2153 84.6066 54.7306C84.7216 53.0116 84.8359 51.2926 84.9501 49.5735C85.1641 46.359 85.3803 43.1447 85.5972 39.9304C85.6594 38.9935 85.7215 38.0565 85.7856 37.0912C87.2925 14.9688 87.2925 14.9688 96.6044 6.7519C107.692 -1.84299 121.883 -2.20931 133.646 5.52207Z" fill="#8863F5"/>
<path d="M144.01 80.8323C145.643 80.9282 147.276 81.0238 148.91 81.1191C153.308 81.377 157.706 81.6399 162.103 81.9046C164.856 82.0702 167.609 82.2352 170.361 82.3999C178.99 82.9169 187.618 83.4373 196.246 83.9622C206.179 84.5664 216.113 85.1584 226.047 85.7402C233.75 86.192 241.453 86.6551 249.155 87.1266C253.746 87.4073 258.336 87.6833 262.928 87.9475C267.242 88.1959 271.555 88.4582 275.867 88.7311C277.445 88.8286 279.024 88.9212 280.602 89.0083C291.176 89.5954 299.951 90.637 307.936 97.8936C312.424 102.915 313.233 108 313.179 114.489C313.174 115.087 313.169 115.686 313.164 116.302C313.087 122.589 312.736 128.858 312.332 135.133C312.256 136.35 312.18 137.568 312.105 138.786C311.947 141.312 311.786 143.838 311.623 146.364C311.417 149.566 311.219 152.767 311.023 155.969C310.869 158.476 310.71 160.982 310.55 163.487C310.475 164.667 310.402 165.846 310.33 167.025C308.774 192.482 308.774 192.482 300.164 199.986C294.964 204.177 290.406 205.236 283.805 205.063C283.06 205.053 282.315 205.042 281.548 205.032C273.962 204.9 266.394 204.501 258.824 204.036C257.348 203.949 255.872 203.863 254.396 203.777C250.487 203.547 246.578 203.311 242.67 203.073C239.408 202.876 236.145 202.682 232.883 202.488C207.801 200.997 182.73 199.375 157.662 197.681C147.378 196.989 137.089 196.374 126.797 195.778C125.415 195.695 125.415 195.695 124.005 195.61C121.944 195.488 119.882 195.377 117.819 195.272C116.714 195.21 115.608 195.147 114.469 195.083C112.975 195.005 112.975 195.005 111.45 194.926C104.777 194.114 99.716 190.971 95.4914 186.063C91.9809 180.591 91.2869 176.365 91.4156 170.042C91.4244 169.205 91.4332 168.368 91.4422 167.506C91.6339 156.244 92.3733 144.995 93.1033 133.756C93.3538 129.89 93.5867 126.025 93.7993 122.157C93.9323 119.757 94.074 117.357 94.2174 114.957C94.3131 113.314 94.3993 111.669 94.4851 110.025C95.0701 100.643 96.2397 92.0572 103.298 85.0774C114.299 76.5522 130.806 80.0355 144.01 80.8323Z" fill="#010102"/>
<path d="M267.253 106.421C277.903 111.59 285.492 120.492 289.226 131.275C291.567 140.996 289.898 150.909 284.732 159.527C278.416 168.384 270.482 174.123 259.499 176.628C247.794 178.124 238.112 176.252 228.427 169.57C220.324 163.025 214.751 154.707 213.644 144.435C213.431 132.644 216.283 123.15 224.801 114.334C235.734 104.407 253.095 101.252 267.253 106.421Z" fill="#FBFBFB"/>
<path d="M175.037 104.122C182.703 109.731 188.689 116.95 190.768 126.152C191.966 138.109 190.59 148.415 182.418 157.974C175.309 165.451 166.676 170.114 155.976 170.813C143.819 170.984 134.328 167.74 125.332 159.731C118.528 152.854 115.443 144.205 115.514 134.868C115.519 134.181 115.524 133.495 115.529 132.787C115.634 127.882 116.1 123.723 118.471 119.308C118.829 118.61 119.188 117.911 119.558 117.192C125.063 107.475 133.268 102.485 143.741 98.5076C154.859 96.5208 165.533 98.0993 175.037 104.122Z" fill="#FBFBFB"/>
<path d="M263.162 120.904C268.475 123.928 272.357 128.019 274.329 133.727C275.579 140.415 275.596 146.867 271.648 152.666C266.794 158.434 261.516 162.148 253.807 163.23C247.715 163.585 243.044 162.005 238.076 158.655C232.779 154.036 229.627 149.924 228.819 142.971C228.666 135.314 229.586 130.306 235.081 124.627C243.068 117.542 253.449 116.073 263.162 120.904Z" fill="#020202"/>
<path d="M163.434 114.175C169.729 117.648 174.462 122.837 176.487 129.574C177.708 137.098 175.616 143.04 171.132 149.251C168.935 151.337 166.681 152.934 163.991 154.385C163.471 154.7 162.951 155.015 162.415 155.34C156.848 157.449 149.07 157.016 143.438 155.247C137.519 152.152 132.532 146.919 130.377 140.71C129.241 134.249 129.659 128.808 133.027 123.041C140.318 113.277 151.525 108.983 163.434 114.175Z" fill="#020202"/>
<path d="M184.187 169.512C187.56 169.575 190.035 170.523 193.148 171.768C199.714 173.588 206.719 172.668 213.084 170.635C216.162 170.223 217.079 170.307 219.611 172.078C221.117 174.057 221.117 174.057 221.619 176.196C221.117 178.334 221.117 178.334 219.22 180.206C211.155 185.08 198.895 184.967 189.733 183.068C185.717 181.872 182.149 180.337 179.166 177.479C178.943 174.484 178.943 174.484 179.166 171.49C180.952 169.779 180.952 169.779 184.187 169.512Z" fill="#F9F9F9"/>
<path d="M189.878 213.417C192.035 213.394 194.192 213.377 196.349 213.363C196.958 213.356 197.566 213.349 198.193 213.342C201.208 213.328 203.956 213.369 206.837 214.272C206.029 217.866 204.246 220.757 202.318 223.897C201.981 224.453 201.645 225.009 201.298 225.582C200.471 226.947 199.638 228.31 198.804 229.672C196.126 228.816 196.126 228.816 194.498 226.016C193.934 224.851 193.38 223.681 192.835 222.507C192.549 221.92 192.263 221.334 191.968 220.729C190.745 218.159 189.878 216.272 189.878 213.417Z" fill="white"/>
<path d="M312.161 121.875C312.456 121.875 312.75 121.875 313.054 121.875C313.076 125.361 313.092 128.848 313.103 132.334C313.107 133.52 313.113 134.706 313.121 135.892C313.132 137.597 313.136 139.302 313.141 141.007C313.145 142.033 313.15 143.059 313.155 144.116C313.054 146.685 313.054 146.685 312.161 149.252C312.046 151.304 311.98 153.359 311.941 155.414C311.912 156.673 311.882 157.932 311.852 159.191C311.811 161.156 311.771 163.12 311.735 165.085C311.243 190.959 311.243 190.959 304.128 198.873C303.244 198.59 302.361 198.308 301.45 198.017C302.251 197.17 302.251 197.17 303.068 196.306C307.75 190.152 308.193 183.958 308.591 176.575C308.728 174.397 308.865 172.218 309.002 170.039C309.076 168.797 309.15 167.556 309.224 166.314C309.522 161.378 309.855 156.445 310.188 151.511C310.249 150.599 310.31 149.686 310.374 148.746C310.498 146.898 310.623 145.049 310.748 143.2C311.048 138.733 311.343 134.266 311.638 129.799C311.691 128.998 311.744 128.197 311.798 127.372C311.919 125.54 312.04 123.707 312.161 121.875Z" fill="#795EC9"/>
<path d="M87.2324 20.918C87.5269 20.918 87.8215 20.918 88.1249 20.918C88.1469 24.5575 88.1632 28.197 88.174 31.8366C88.1785 33.0757 88.1846 34.3147 88.1923 35.5537C88.203 37.3311 88.2081 39.1085 88.2121 40.8859C88.2168 41.9567 88.2214 43.0275 88.2263 44.1307C88.1249 46.5839 88.1249 46.5839 87.2324 47.4394C87.1233 49.3792 87.0719 51.322 87.0441 53.2644C87.019 54.4625 86.9935 55.6605 86.9674 56.8586C86.9305 58.7549 86.8976 60.6511 86.8741 62.5476C86.8495 64.3729 86.8086 66.1973 86.7652 68.0223C86.7475 69.119 86.7298 70.2157 86.7116 71.3456C86.5889 72.2086 86.4662 73.0717 86.3398 73.9609C85.4562 74.5255 84.5725 75.0902 83.6621 75.6719C84.2642 57.3835 85.7792 39.1584 87.2324 20.918Z" fill="#795ECA"/>
<path d="M187.197 198.868C225.075 198.518 225.075 198.518 243.429 201.435C245.511 201.723 247.593 202.009 249.677 202.29C249.677 202.572 249.677 202.855 249.677 203.146C235.399 202.611 221.147 201.852 206.889 200.953C204.962 200.833 203.034 200.714 201.107 200.594C196.47 200.306 191.834 200.016 187.197 199.724C187.197 199.441 187.197 199.159 187.197 198.868Z" fill="#160E38"/>
<path d="M308.589 306.66C312.082 309.9 313.203 311.457 313.331 316.124C313.304 323.189 311.36 329.821 309.481 336.604C309.187 336.604 308.892 336.604 308.589 336.604C308.714 334.625 308.845 332.647 308.979 330.668C309.052 329.567 309.124 328.465 309.199 327.33C309.481 324.626 309.481 324.626 310.374 323.771C310.488 321.692 310.539 319.648 310.541 317.568C310.552 316.996 310.563 316.423 310.574 315.834C310.585 312.386 310.175 309.761 308.589 306.66Z" fill="#7A5FC9"/>
<path d="M280.027 325.488C281.205 325.488 282.383 325.488 283.597 325.488C283.495 327.557 283.382 329.623 283.262 331.691C283.234 332.274 283.207 332.858 283.178 333.459C282.981 336.702 282.411 338.883 280.919 341.743C280.704 344.549 280.704 344.549 280.808 347.518C280.824 348.52 280.84 349.521 280.856 350.553C280.877 351.316 280.898 352.079 280.919 352.865C278.871 350.82 278.265 349.643 277.935 346.793C278.324 342.558 279.333 338.625 280.473 334.525C280.686 333.736 280.899 332.947 281.118 332.134C281.64 330.202 282.169 328.272 282.704 326.344C281.821 326.061 280.937 325.779 280.027 325.488Z" fill="#7259BF"/>
<path d="M213.365 180.011C214.795 180.023 214.795 180.023 216.255 180.035C216.976 180.045 217.698 180.054 218.441 180.065C215.509 182.875 212.311 183.432 208.239 183.654C207.225 183.634 206.21 183.614 205.164 183.594C204.136 183.578 203.107 183.563 202.047 183.547C201.272 183.527 200.496 183.507 199.697 183.487C203.982 179.988 207.891 179.954 213.365 180.011Z" fill="#BBBBBB"/>
<path d="M189.878 213.495C192.035 213.472 194.192 213.455 196.349 213.442C196.958 213.434 197.566 213.427 198.193 213.42C201.208 213.406 203.956 213.447 206.837 214.351C206.325 216.804 206.068 217.654 204.159 219.484C204.159 218.354 204.159 217.225 204.159 216.062C197.973 215.638 197.973 215.638 191.663 215.206C191.958 216.618 192.252 218.029 192.556 219.484C189.878 216.382 189.878 216.382 189.878 213.495Z" fill="white"/>
<path d="M77.4132 166.367C77.7077 166.367 78.0023 166.367 78.3058 166.367C78.6003 174.837 78.8949 183.307 79.1983 192.033C74.3008 184.992 76.2967 174.489 77.4132 166.367Z" fill="#755BC5"/>
<path d="M398.738 165.508C399.032 165.508 399.327 165.508 399.63 165.508C399.972 182.218 399.972 182.218 397.845 189.463C397.55 189.463 397.256 189.463 396.952 189.463C396.928 187.93 396.911 186.397 396.897 184.864C396.886 184.011 396.876 183.157 396.865 182.278C396.952 180.052 396.952 180.052 397.845 178.341C398.052 176.162 398.219 174 398.347 171.817C398.386 171.213 398.424 170.609 398.464 169.986C398.559 168.493 398.648 167.001 398.738 165.508Z" fill="#7B5FCD"/>
<path d="M51.5283 162.93C53.7977 163.028 56.0656 163.136 58.3341 163.251C58.9704 163.277 59.6067 163.303 60.2622 163.331C64.1773 163.537 67.469 164.122 71.1647 165.496C71.1647 165.779 71.1647 166.061 71.1647 166.352C64.212 166.75 58.1986 165.631 51.5283 163.785C51.5283 163.503 51.5283 163.221 51.5283 162.93Z" fill="#7459C2"/>
<path d="M311.265 103.047C311.854 103.047 312.443 103.047 313.05 103.047C316.209 108.914 314.897 115.579 313.942 121.869C313.648 121.869 313.353 121.869 313.05 121.869C312.996 120.94 312.942 120.011 312.886 119.055C312.811 117.818 312.735 116.582 312.659 115.345C312.624 114.735 312.589 114.125 312.553 113.497C312.333 109.961 311.948 106.535 311.265 103.047Z" fill="#7C62C9"/>
<path d="M163.102 289.57C163.397 290.135 163.692 290.7 163.995 291.281C160.204 301.226 160.204 301.226 155.962 303.259C157.236 300.016 158.785 297.038 160.536 294.008C161.017 293.174 161.498 292.339 161.994 291.479C162.36 290.849 162.725 290.219 163.102 289.57Z" fill="#7B5FCD"/>
<path d="M171.136 275.859C171.43 276.989 171.725 278.118 172.028 279.281C171.439 279.281 170.85 279.281 170.243 279.281C170.114 279.952 169.985 280.623 169.853 281.313C169.351 283.559 169.351 283.559 168.458 285.27C167.869 285.27 167.28 285.27 166.673 285.27C166.673 286.117 166.673 286.964 166.673 287.837C166.084 287.837 165.495 287.837 164.888 287.837C166.462 283.583 168.81 279.765 171.136 275.859Z" fill="#7B5FCD"/>
<path d="M38.1396 156.953C39.3178 156.953 40.496 156.953 41.7099 156.953C41.7099 157.518 41.7099 158.082 41.7099 158.664C42.3726 158.788 43.0354 158.911 43.7182 159.038C44.5282 159.197 45.3382 159.356 46.1727 159.52C47.1668 159.679 47.1668 159.679 48.181 159.841C48.6964 160.017 49.2119 160.193 49.743 160.375C50.0375 161.222 50.3321 162.069 50.6355 162.942C41.9081 160.372 41.9081 160.372 38.1396 157.809C38.1396 157.526 38.1396 157.244 38.1396 156.953Z" fill="#795DC9"/>
<path d="M113.117 78.2422C117.535 78.2422 121.954 78.2422 126.506 78.2422C126.506 78.5245 126.506 78.8068 126.506 79.0977C125.327 79.2681 125.327 79.2681 124.124 79.4419C123.088 79.593 122.051 79.7441 120.983 79.8998C119.445 80.1231 119.445 80.1231 117.876 80.3509C115.381 80.735 112.912 81.1688 110.439 81.6643C110.439 81.0997 110.439 80.535 110.439 79.9532C111.323 79.9532 112.207 79.9532 113.117 79.9532C113.117 79.3886 113.117 78.8239 113.117 78.2422Z" fill="#8063D8"/>
<path d="M202.372 222.812C203.265 224.524 203.265 224.524 202.539 226.662C201.479 228.801 201.479 228.801 199.694 230.512C198.811 230.23 197.927 229.948 197.017 229.657C197.403 229.321 197.79 228.986 198.188 228.641C199.93 226.848 201.114 224.938 202.372 222.812Z" fill="#7359C2"/>
<path d="M147.032 316.934C147.327 317.498 147.621 318.063 147.925 318.645C147.089 320.664 146.199 322.662 145.247 324.633C144.658 324.633 144.069 324.633 143.462 324.633C144.407 321.722 145.255 319.489 147.032 316.934Z" fill="#7C60CE"/>
<path d="M135.43 320.352C136.424 320.749 136.424 320.749 137.438 321.154C139.452 321.9 141.361 322.47 143.463 322.918C143.168 323.765 142.874 324.612 142.57 325.485C139.566 324.251 137.652 322.634 135.43 320.352Z" fill="#0C062B"/>
</svg>
