<svg width="776" height="283" viewBox="0 0 776 283" fill="none" xmlns="http://www.w3.org/2000/svg">
<g clip-path="url(#clip0_921_460)">
<path d="M0 1C180.852 1 180.852 1 222.345 41.2319C237.156 56.0641 247.474 74.138 252.939 94.2395C253.158 94.9931 253.378 95.7468 253.604 96.5233C257.577 110.645 257.944 124.679 258 139.234C258.012 140.586 258.012 140.586 258.024 141.966C258.135 160.328 255.798 178.261 249.299 195.548C249.071 196.164 248.842 196.781 248.607 197.416C239.421 221.788 222.333 245.056 199.258 258.305C198.591 258.692 197.925 259.078 197.238 259.477C181.356 268.533 164.716 274.267 146.771 277.917C145.93 278.088 145.09 278.26 144.225 278.436C98.5129 286.966 39.7726 281.615 0 281.615C0 189.012 0 96.4091 0 1ZM61.8699 53.8955C61.8699 110.404 61.8699 166.912 61.8699 225.133C121.594 227.42 121.594 227.42 171.962 200.927C172.531 200.377 173.1 199.827 173.686 199.26C182.209 190.387 186.834 179.33 190.159 167.755C190.373 167.019 190.586 166.283 190.806 165.524C197.197 140.561 193.204 110.952 180.151 88.8603C169.388 71.6401 152.8 62.0677 133.201 57.3415C109.129 51.8098 88.6995 53.8955 61.8699 53.8955Z" fill="#5CC6F7"/>
<path d="M366.206 59.0742C366.822 59.0693 367.438 59.0643 368.072 59.0592C394.179 58.9057 418.916 65.6584 438.127 83.6649C451.56 97.6313 457.041 116.856 457.027 135.752C457.028 136.688 457.028 136.688 457.029 137.644C457.031 139.713 457.026 141.782 457.021 143.851C457.021 145.343 457.021 146.835 457.021 148.327C457.022 152.362 457.016 156.396 457.01 160.431C457.004 164.653 457.004 168.876 457.003 173.098C457 181.087 456.992 189.075 456.983 197.064C456.973 206.162 456.968 215.259 456.964 224.357C456.954 243.065 456.937 261.773 456.918 280.482C437.723 280.482 418.529 280.482 398.753 280.482C398.453 272.798 398.153 265.115 397.844 257.199C395.145 259.859 392.446 262.518 389.665 265.258C371.311 280.73 351.423 284.562 328 282.923C311.039 280.887 295.446 274.402 282.423 263.467C281.9 263.09 281.376 262.712 280.837 262.324C272.432 256.031 265.891 245.409 262.429 235.708C262.074 234.715 261.719 233.722 261.354 232.699C255.993 215.079 256.97 195.013 265.326 178.509C274.992 162.136 291.434 153.065 309.493 148.007C324.187 144.19 339.242 143.323 354.38 143.386C355.554 143.387 356.727 143.388 357.936 143.39C361.012 143.393 364.089 143.402 367.165 143.412C370.321 143.421 373.478 143.425 376.634 143.429C382.795 143.439 388.957 143.454 395.118 143.473C394.876 141.355 394.622 139.24 394.362 137.124C394.262 136.237 394.262 136.237 394.161 135.332C393.243 128.066 390.348 121.256 384.893 116.161C374.011 108.084 359.433 108.318 346.496 109.685C329.58 112.115 311.278 118.559 297.65 128.904C296.056 130.041 296.056 130.041 294.238 130.041C292.927 128.252 292.927 128.252 291.402 125.766C287.971 120.3 284.298 115.039 280.549 109.781C278.711 107.197 276.876 104.613 275.049 102.021C273.923 100.427 272.786 98.8389 271.639 97.2589C271.131 96.5452 270.624 95.8316 270.101 95.0963C269.65 94.4714 269.198 93.8464 268.733 93.2026C268.452 92.6524 268.171 92.1022 267.882 91.5354C269.165 87.7445 271.949 86.6246 275.266 84.6514C275.922 84.2568 276.578 83.8622 277.253 83.4557C304.927 66.9635 333.829 59.245 366.206 59.0742ZM325.138 197.202C321.113 201.91 320.942 207.248 321.159 213.212C321.914 219.343 324.68 223.56 329.572 227.365C340.252 233.896 353.787 234.413 365.808 231.958C375.826 229.386 384.87 223.828 390.51 215.077C394.085 208.285 395.248 202.733 395.175 195.075C395.166 193.96 395.158 192.845 395.15 191.696C395.139 190.853 395.129 190.011 395.118 189.143C388.069 189.074 381.021 189.027 373.972 188.995C371.578 188.982 369.185 188.963 366.791 188.94C363.334 188.907 359.878 188.892 356.422 188.88C354.836 188.859 354.836 188.859 353.219 188.838C343.046 188.836 332.877 190.141 325.138 197.202Z" fill="#5CC6F7"/>
<path d="M617.243 59.0566C617.243 77.9717 617.243 96.8868 617.243 116.375C604.214 117.262 604.214 117.262 590.922 118.166C579.935 120.837 569.774 125.163 563.207 134.724C550.733 155.829 548.906 175.604 548.794 199.631C548.777 201.962 548.76 204.294 548.741 206.625C548.7 212.102 548.665 217.58 548.635 223.057C548.597 229.916 548.547 236.775 548.497 243.634C548.407 255.846 548.336 268.058 548.263 280.27C527.895 280.27 507.528 280.27 486.543 280.27C486.543 208.747 486.543 137.225 486.543 63.5346C506.91 63.5346 527.278 63.5346 548.263 63.5346C548.562 71.81 548.862 80.0853 549.17 88.6114C553.663 84.6215 553.663 84.6215 558.247 80.551C560.393 78.9545 562.471 77.4544 564.714 76.0171C565.286 75.648 565.858 75.2789 566.448 74.8987C582.259 64.9166 598.291 59.0566 617.243 59.0566Z" fill="#5CC6F7"/>
<path d="M664.518 1C666.173 1.00329 666.173 1.00329 667.861 1.00664C669.106 1.00672 670.351 1.00679 671.635 1.00687C673.004 1.01191 674.374 1.01706 675.743 1.0223C677.137 1.02414 678.53 1.02555 679.923 1.02653C683.597 1.03031 687.271 1.04001 690.945 1.05092C695.35 1.06277 699.754 1.06732 704.159 1.07308C710.856 1.08266 717.554 1.10156 724.251 1.11868C724.251 20.0086 724.251 38.8986 724.251 58.361C741.252 58.361 758.253 58.361 775.77 58.361C775.77 76.2739 775.77 94.1868 775.77 112.643C758.769 112.643 741.767 112.643 724.251 112.643C724.339 130.142 724.339 130.142 724.454 147.642C724.507 154.783 724.557 161.924 724.588 169.065C724.613 174.824 724.652 180.583 724.701 186.343C724.717 188.536 724.729 190.73 724.735 192.924C724.744 196.004 724.771 199.084 724.803 202.164C724.801 203.065 724.8 203.965 724.798 204.892C724.887 211.058 725.393 217.919 729.481 222.812C735.72 228.396 743.407 227.668 751.288 227.317C759.541 226.579 767.247 223.504 774.798 220.219C774.798 237.48 774.798 254.742 774.798 272.526C758.352 280.319 758.352 280.319 752.441 281.779C751.298 282.071 750.155 282.364 748.978 282.665C733.039 286.086 713.622 286.604 698.005 281.409C697.152 281.145 696.299 280.882 695.42 280.611C683.035 276.238 674.284 267.545 668.362 255.833C663.482 244.689 661.592 233.566 661.708 221.436C661.708 220.25 661.708 219.064 661.707 217.842C661.709 214.635 661.723 211.429 661.744 208.222C661.762 204.854 661.764 201.486 661.767 198.118C661.776 191.76 661.8 185.403 661.829 179.045C661.862 171.799 661.878 164.552 661.893 157.306C661.923 142.418 661.976 127.53 662.039 112.643C653.378 112.643 644.717 112.643 635.794 112.643C635.794 94.7296 635.794 76.8167 635.794 58.361C644.455 58.361 653.116 58.361 662.039 58.361C661.958 54.3115 661.877 50.262 661.793 46.0898C661.731 42.8692 661.67 39.6485 661.609 36.4279C661.545 33.0235 661.479 29.6192 661.409 26.215C661.329 22.3127 661.257 18.4103 661.185 14.5079C661.159 13.2824 661.133 12.057 661.105 10.7945C661.086 9.66826 661.066 8.54206 661.046 7.38173C661.027 6.38455 661.007 5.38737 660.987 4.35998C661.101 1.15143 661.347 1.15184 664.518 1Z" fill="#5CC6F7"/>
</g>
<defs>
<clipPath id="clip0_921_460">
<rect width="776" height="283" fill="white"/>
</clipPath>
</defs>
</svg>
